#!OML:ASF H:\Terrain\Patient Classification 1\Animal2\Wednesday\Animal2.ASF
:FULLY-SPECIFIED
:DEGREES
3591
root -0.960138 18.2324 10.4002 203.098 -188.97 -178.047
lowerback 13.2356 -1.30889 0.986949
upperback -7.34957 -1.77597 -1.33296
thorax -15.8621 -1.01945 -1.59381
lowerneck 2.11408 2.89804 13.1352
upperneck -26.3308 -0.116189 -25.0628
head -8.09455 1.00746 -11.4696
rclavicle 4.91992e-015 -1.78906e-015
rhumerus -34.6324 5.02501 -82.1649
rradius 99.6152
rwrist -13.1901
rhand -22.2654 6.69055
rfingers 7.12502
rthumb 4.15246 -23.2487
lclavicle 4.91992e-015 -1.78906e-015
lhumerus -41.6899 -6.10395 69.8339
lradius 97.578
lwrist 36.1659
lhand -31.775 17.2801
lfingers 7.12502
lthumb -5.03147 47.2003
rfemur -47.2233 -1.1877 14.9608
rtibia 35.6979
rfoot -3.46965 1.27622
rtoes 28.8778
lfemur -32.2606 -5.1356 -13.0089
ltibia 31.3875
lfoot -8.4834 -7.53276
ltoes -29.5563
3592
root -0.990268 18.2506 10.457 202.887 -189.316 -177.693
lowerback 13.4227 -1.30827 1.11428
upperback -7.16751 -1.76131 -1.43925
thorax -15.7683 -1.03191 -1.78779
lowerneck 2.0277 2.77718 13.2963
upperneck -26.0406 -0.249602 -25.1439
head -8.00801 0.925313 -11.501
rclavicle 7.85199e-015 1.17283e-014
rhumerus -34.3074 5.10005 -81.9913
rradius 99.071
rwrist -12.9865
rhand -21.8578 6.39159
rfingers 7.12502
rthumb 4.5461 -23.5396
lclavicle 7.85199e-015 1.17283e-014
lhumerus -41.9115 -6.79241 70.3822
lradius 96.5254
lwrist 35.3885
lhand -31.5801 17.0566
lfingers 7.12502
lthumb -4.84333 46.9812
rfemur -46.4264 -1.24354 14.7599
rtibia 35.6057
rfoot -4.03133 1.12177
rtoes 29.0281
lfemur -32.266 -5.23158 -13.2266
ltibia 32.0299
lfoot -8.06696 -7.94671
ltoes -29.4161
3593
root -1.02324 18.2518 10.5039 202.964 -189.437 -177.551
lowerback 13.4008 -1.22477 1.21555
upperback -7.15378 -1.62732 -1.44727
thorax -15.7351 -0.981239 -1.89056
lowerneck 2.07878 2.6697 13.4144
upperneck -25.7249 -0.349789 -25.2119
head -7.9341 0.868379 -11.5214
rclavicle -1.963e-014 1.76918e-014
rhumerus -34.0577 5.46446 -81.8185
rradius 98.5152
rwrist -13.1536
rhand -22.3337 6.34138
rfingers 7.12502
rthumb 4.08657 -23.5992
lclavicle -1.963e-014 1.76918e-014
lhumerus -42.4573 -7.67508 71.2667
lradius 95.7242
lwrist 34.769
lhand -31.7564 16.7432
lfingers 7.12502
lthumb -5.01355 46.6639
rfemur -46.1227 -1.10186 14.703
rtibia 35.4657
rfoot -4.63306 0.93332
rtoes 27.6427
lfemur -32.7026 -4.91292 -13.2867
ltibia 32.7793
lfoot -7.44235 -8.43918
ltoes -26.4227
3594
root -1.05498 18.2464 10.5424 203.34 -189.785 -177.477
lowerback 12.9843 -1.22851 1.49245
upperback -7.10215 -1.57027 -1.38662
thorax -15.4114 -0.976967 -1.99814
lowerneck 2.04056 2.59277 13.4514
upperneck -25.5314 -0.427536 -25.2117
head -7.88054 0.82257 -11.5064
rclavicle 4.27884e-014 7.05686e-015
rhumerus -33.6519 5.89039 -81.51
rradius 98.0595
rwrist -13.2405
rhand -22.6361 6.26929
rfingers 7.12502
rthumb 3.79447 -23.6767
lclavicle 4.27884e-014 7.05686e-015
lhumerus -42.7517 -8.244 72.1597
lradius 94.7913
lwrist 34.5362
lhand -32.1629 16.1979
lfingers 7.12502
lthumb -5.40598 46.109
rfemur -46.2414 -1.14085 14.7514
rtibia 35.322
rfoot -5.05446 0.666097
rtoes 26.3823
lfemur -33.5794 -4.78297 -13.1417
ltibia 33.5524
lfoot -6.89065 -8.80907
ltoes -24.6144
3595
root -1.08367 18.2406 10.5915 203.27 -190.282 -177.062
lowerback 13.0941 -1.28985 1.60871
upperback -6.91895 -1.63737 -1.45247
thorax -15.2701 -1.02145 -2.11925
lowerneck 2.04709 2.54271 13.51
upperneck -25.4258 -0.451632 -25.1195
head -7.85397 0.798015 -11.4689
rclavicle 2.31087e-015 3.11098e-014
rhumerus -33.3401 6.15307 -81.1862
rradius 97.5714
rwrist -13.3482
rhand -22.6809 5.90626
rfingers 7.12502
rthumb 3.75123 -24.0405
lclavicle 2.31087e-015 3.11098e-014
lhumerus -42.9193 -8.75929 72.8217
lradius 93.7188
lwrist 34.4736
lhand -32.3706 15.7765
lfingers 7.12502
lthumb -5.60652 45.6823
rfemur -45.8076 -1.35532 14.4373
rtibia 35.2661
rfoot -5.4621 0.494254
rtoes 26.2306
lfemur -33.9108 -5.15821 -13.2738
ltibia 34.3498
lfoot -6.50926 -9.17198
ltoes -24.2332
3596
root -1.11268 18.2315 10.6414 202.89 -190.844 -176.622
lowerback 13.6878 -1.39389 1.68261
upperback -6.78315 -1.7626 -1.49051
thorax -15.4944 -1.08931 -2.16359
lowerneck 2.3006 2.48076 13.7152
upperneck -25.3745 -0.497377 -25.1935
head -7.89511 0.775941 -11.5459
rclavicle 1.78782e-014 1.11816e-014
rhumerus -33.2197 6.58387 -80.8838
rradius 96.9069
rwrist -13.5121
rhand -22.8288 5.86225
rfingers 7.12502
rthumb 3.60846 -24.087
lclavicle 1.78782e-014 1.11816e-014
lhumerus -43.4122 -9.1708 73.4718
lradius 92.6394
lwrist 34.0184
lhand -32.7829 15.9014
lfingers 7.12502
lthumb -6.00463 45.7963
rfemur -45.0725 -1.3509 13.9737
rtibia 35.3612
rfoot -6.00873 0.247841
rtoes 26.0928
lfemur -33.9096 -5.62718 -13.3913
ltibia 35.1473
lfoot -6.3456 -9.53912
ltoes -25.5559
3597
root -1.13991 18.2217 10.678 202.835 -191.319 -176.242
lowerback 14.0654 -1.47665 1.75355
upperback -6.78938 -1.85568 -1.48245
thorax -15.7504 -1.14062 -2.16423
lowerneck 2.46167 2.417 14.0508
upperneck -25.117 -0.549162 -25.4683
head -7.84591 0.745231 -11.7097
rclavicle -1.18626e-014 -3.76138e-015
rhumerus -33.234 7.23859 -80.5273
rradius 96.3272
rwrist -13.6269
rhand -23.2581 6.47696
rfingers 7.12502
rthumb 3.19384 -23.4789
lclavicle -1.18626e-014 -3.76138e-015
lhumerus -44.0864 -9.45192 74.2127
lradius 91.6032
lwrist 33.5107
lhand -32.9498 16.6789
lfingers 7.12502
lthumb -6.16571 46.5692
rfemur -44.8263 -1.41315 13.6009
rtibia 35.6022
rfoot -6.50607 0.136037
rtoes 24.6539
lfemur -34.3161 -6.011 -13.4386
ltibia 36.0243
lfoot -6.48993 -9.41347
ltoes -29.5313
3598
root -1.16827 18.2058 10.7107 202.987 -191.528 -176.007
lowerback 14.1843 -1.45875 1.8073
upperback -6.82054 -1.81585 -1.46252
thorax -15.863 -1.12765 -2.1815
lowerneck 2.48705 2.33276 14.36
upperneck -24.7395 -0.614891 -25.6785
head -7.7359 0.695354 -11.8237
rclavicle -2.49723e-015 -9.0944e-015
rhumerus -33.1013 7.76056 -80.156
rradius 95.7463
rwrist -13.665
rhand -23.4815 6.63625
rfingers 7.12502
rthumb 2.97806 -23.3227
lclavicle -2.49723e-015 -9.0944e-015
lhumerus -44.755 -9.76187 74.9984
lradius 90.8542
lwrist 33.4598
lhand -32.6146 17.1726
lfingers 7.12502
lthumb -5.84215 47.0721
rfemur -44.9463 -1.47025 13.4049
rtibia 35.8929
rfoot -6.97536 0.269875
rtoes 22.8366
lfemur -35.0371 -6.14173 -13.4212
ltibia 37.1001
lfoot -6.55098 -9.26232
ltoes -31.114
3599
root -1.19466 18.1814 10.7444 203.135 -191.602 -176.056
lowerback 14.1291 -1.3644 2.00815
upperback -6.78886 -1.6306 -1.36214
thorax -15.7814 -1.05522 -2.23326
lowerneck 2.61585 2.20894 14.5566
upperneck -24.6022 -0.749486 -25.7435
head -7.74756 0.621644 -11.881
rclavicle -1.2424e-016 -3.8763e-015
rhumerus -32.7514 8.12214 -79.7317
rradius 95.0777
rwrist -13.7308
rhand -23.1317 6.14538
rfingers 7.12502
rthumb 3.31591 -23.8086
lclavicle -1.2424e-016 -3.8763e-015
lhumerus -45.1452 -9.82245 75.677
lradius 89.811
lwrist 33.059
lhand -32.1947 16.3699
lfingers 7.12502
lthumb -5.43671 46.2802
rfemur -45.1501 -1.46049 13.4958
rtibia 36.1814
rfoot -7.61112 0.617835
rtoes 23.6718
lfemur -35.8582 -6.08672 -13.1744
ltibia 38.304
lfoot -6.71432 -9.4162
ltoes -31.5999
3600
root -1.21566 18.1568 10.7768 203.036 -191.855 -176.379
lowerback 14.1658 -1.34804 2.58493
upperback -6.60579 -1.4666 -1.22556
thorax -15.5876 -1.02525 -2.44987
lowerneck 2.68715 2.1717 14.7568
upperneck -24.7163 -0.766297 -25.6408
head -7.8039 0.593689 -11.8932
rclavicle -1.83379e-014 1.35174e-014
rhumerus -32.2028 8.55071 -79.4212
rradius 94.3715
rwrist -13.8601
rhand -22.7275 6.03995
rfingers 7.12502
rthumb 3.70625 -23.9076
lclavicle -1.83379e-014 1.35174e-014
lhumerus -45.1611 -9.68537 75.9924
lradius 88.1029
lwrist 32.0403
lhand -31.1689 14.0916
lfingers 7.12502
lthumb -4.44622 44.025
rfemur -45.0745 -1.54098 13.9747
rtibia 36.4119
rfoot -8.29691 1.00564
rtoes 26.4423
lfemur -36.5049 -6.17933 -12.5716
ltibia 39.5144
lfoot -7.0733 -9.56981
ltoes -32.0864
